<mxfile host="app.diagrams.net" modified="2021-12-13T02:43:12.169Z" agent="5.0 (Windows NT 10.0; Win64; x64) AppleWebKit/537.36 (KHTML, like Gecko) Chrome/96.0.4664.45 Safari/537.36" etag="IJdizfYQnw6G5ekjBiLN" version="15.9.4" type="github">
  <diagram id="WNX5m1fAUXGDbS_glTKG" name="第 1 页">
    <mxGraphModel dx="1422" dy="802" grid="1" gridSize="10" guides="1" tooltips="1" connect="1" arrows="1" fold="1" page="1" pageScale="1" pageWidth="827" pageHeight="1169" math="0" shadow="0">
      <root>
        <mxCell id="0" />
        <mxCell id="1" parent="0" />
        <mxCell id="1VrG67VHD4GhFXGrVsCo-5" value="" style="edgeStyle=orthogonalEdgeStyle;rounded=0;orthogonalLoop=1;jettySize=auto;html=1;" edge="1" parent="1" source="1VrG67VHD4GhFXGrVsCo-2" target="1VrG67VHD4GhFXGrVsCo-4">
          <mxGeometry relative="1" as="geometry" />
        </mxCell>
        <mxCell id="1VrG67VHD4GhFXGrVsCo-2" value="" style="rounded=0;whiteSpace=wrap;html=1;" vertex="1" parent="1">
          <mxGeometry x="310" y="90" width="120" height="60" as="geometry" />
        </mxCell>
        <mxCell id="1VrG67VHD4GhFXGrVsCo-7" value="" style="edgeStyle=orthogonalEdgeStyle;rounded=0;orthogonalLoop=1;jettySize=auto;html=1;" edge="1" parent="1" source="1VrG67VHD4GhFXGrVsCo-4" target="1VrG67VHD4GhFXGrVsCo-6">
          <mxGeometry relative="1" as="geometry" />
        </mxCell>
        <mxCell id="1VrG67VHD4GhFXGrVsCo-4" value="" style="whiteSpace=wrap;html=1;rounded=0;" vertex="1" parent="1">
          <mxGeometry x="310" y="230" width="120" height="60" as="geometry" />
        </mxCell>
        <mxCell id="1VrG67VHD4GhFXGrVsCo-9" value="" style="edgeStyle=orthogonalEdgeStyle;rounded=0;orthogonalLoop=1;jettySize=auto;html=1;" edge="1" parent="1" source="1VrG67VHD4GhFXGrVsCo-6" target="1VrG67VHD4GhFXGrVsCo-8">
          <mxGeometry relative="1" as="geometry" />
        </mxCell>
        <mxCell id="1VrG67VHD4GhFXGrVsCo-6" value="" style="whiteSpace=wrap;html=1;rounded=0;" vertex="1" parent="1">
          <mxGeometry x="110" y="230" width="120" height="60" as="geometry" />
        </mxCell>
        <mxCell id="1VrG67VHD4GhFXGrVsCo-15" value="" style="edgeStyle=orthogonalEdgeStyle;rounded=0;orthogonalLoop=1;jettySize=auto;html=1;" edge="1" parent="1" source="1VrG67VHD4GhFXGrVsCo-8" target="1VrG67VHD4GhFXGrVsCo-14">
          <mxGeometry relative="1" as="geometry" />
        </mxCell>
        <mxCell id="1VrG67VHD4GhFXGrVsCo-8" value="" style="rhombus;whiteSpace=wrap;html=1;rounded=0;" vertex="1" parent="1">
          <mxGeometry x="130" y="360" width="80" height="80" as="geometry" />
        </mxCell>
        <mxCell id="1VrG67VHD4GhFXGrVsCo-11" style="edgeStyle=orthogonalEdgeStyle;rounded=0;orthogonalLoop=1;jettySize=auto;html=1;entryX=0;entryY=0.5;entryDx=0;entryDy=0;" edge="1" parent="1" source="1VrG67VHD4GhFXGrVsCo-10" target="1VrG67VHD4GhFXGrVsCo-2">
          <mxGeometry relative="1" as="geometry" />
        </mxCell>
        <mxCell id="1VrG67VHD4GhFXGrVsCo-10" value="" style="html=1;dashed=0;whitespace=wrap;shape=mxgraph.dfd.start" vertex="1" parent="1">
          <mxGeometry x="110" y="105" width="80" height="30" as="geometry" />
        </mxCell>
        <mxCell id="1VrG67VHD4GhFXGrVsCo-12" value="" style="html=1;dashed=0;whitespace=wrap;shape=mxgraph.dfd.start" vertex="1" parent="1">
          <mxGeometry x="560" y="385" width="80" height="30" as="geometry" />
        </mxCell>
        <mxCell id="1VrG67VHD4GhFXGrVsCo-16" style="edgeStyle=orthogonalEdgeStyle;rounded=0;orthogonalLoop=1;jettySize=auto;html=1;entryX=0;entryY=0.5;entryDx=0;entryDy=0;entryPerimeter=0;" edge="1" parent="1" source="1VrG67VHD4GhFXGrVsCo-14" target="1VrG67VHD4GhFXGrVsCo-12">
          <mxGeometry relative="1" as="geometry" />
        </mxCell>
        <mxCell id="1VrG67VHD4GhFXGrVsCo-14" value="" style="whiteSpace=wrap;html=1;rounded=0;" vertex="1" parent="1">
          <mxGeometry x="320" y="370" width="120" height="60" as="geometry" />
        </mxCell>
      </root>
    </mxGraphModel>
  </diagram>
</mxfile>
